# 3ds Max Wavefront OBJ Exporter v0.97b - (c)2007 guruware
# File Created: 03.02.2016 16:31:13

mtllib rock_2_low.mtl

#
# object Box003
#

v  -33.5362 -51.4111 35.2288
v  -26.5327 -39.3377 49.3468
v  -38.8543 -37.6196 40.4185
v  -43.5182 -43.4662 24.1835
v  -15.6077 -53.1407 44.7956
v  -10.8315 -39.4333 57.5076
v  6.8473 -45.0972 45.2472
v  7.2210 -35.6515 58.4565
v  25.2812 -38.7238 44.4159
v  23.0583 -31.4794 55.8722
v  37.5999 -32.9366 38.6173
v  34.9291 -28.4911 50.9954
v  -33.8589 -54.1173 10.6800
v  -43.9039 -45.3288 4.2208
v  -16.3402 -59.6141 18.0382
v  7.2850 -55.3211 23.4844
v  27.1594 -44.8721 23.9316
v  38.6778 -36.6245 21.0268
v  -29.9053 -51.2026 -12.3052
v  -39.9736 -42.7434 -14.7829
v  -13.7340 -57.2580 -9.6574
v  7.4374 -59.3835 -6.3576
v  27.8665 -50.0281 -0.8143
v  38.7265 -40.3116 2.1313
v  -27.5596 -50.3958 -32.1507
v  -40.0688 -45.0089 -33.6161
v  -11.4536 -53.2447 -30.7248
v  6.9938 -56.0444 -29.5816
v  25.6539 -50.2429 -23.0543
v  39.8612 -44.6421 -17.0267
v  -22.5984 -46.1030 -45.3772
v  -34.9738 -42.8095 -46.3706
v  -8.5489 -49.0693 -44.7602
v  7.3807 -52.6058 -45.6820
v  23.9407 -48.7822 -39.4923
v  38.6142 -46.0167 -34.1207
v  -25.1824 59.6141 26.2930
v  -42.4301 53.4710 17.6219
v  -37.5125 50.5380 38.2999
v  -19.5335 52.5370 46.5858
v  3.4329 51.2667 31.0931
v  4.4697 43.7464 48.4808
v  31.6180 38.3804 33.5341
v  27.1488 33.4585 49.5433
v  53.3477 25.3177 33.3653
v  45.1791 23.7108 47.6155
v  67.7052 15.5724 30.9606
v  55.5922 15.1715 42.4773
v  -28.0559 58.3027 -3.7924
v  -44.8057 51.5536 -7.8193
v  0.0846 58.0128 3.8954
v  33.5236 41.6720 8.7751
v  57.1476 25.7465 12.2284
v  73.8615 15.3667 13.0496
v  -28.6928 53.1268 -34.8959
v  -46.6008 49.2066 -34.7893
v  0.1570 46.5799 -28.0110
v  32.4797 37.7802 -20.3390
v  55.0923 23.7899 -11.2546
v  69.3040 13.7882 -6.5917
v  -22.3991 36.3423 -52.7652
v  -39.7950 37.2597 -51.9048
v  0.5964 34.7945 -51.3369
v  28.6530 29.5304 -44.3840
v  49.8792 19.5875 -32.2370
v  63.3031 11.0688 -23.8593
v  -16.3082 24.4491 -62.9877
v  -32.0405 26.2862 -61.8474
v  3.0014 23.0133 -62.9276
v  25.8990 19.4947 -57.8452
v  44.0037 13.6751 -46.8696
v  58.2381 7.8706 -38.3244
v  -28.9811 -26.2733 56.2611
v  -42.3050 -24.1199 43.7308
v  -9.6469 -26.4464 66.4581
v  11.5432 -23.8155 63.6633
v  29.3062 -21.6392 59.5019
v  41.2012 -20.5401 53.1232
v  -30.9103 -6.1573 60.1832
v  -45.7561 -4.9584 46.9907
v  -8.0285 -7.6687 67.1928
v  15.7468 -9.4797 68.9765
v  33.7161 -10.3562 57.9857
v  42.8857 -11.3203 48.7109
v  -28.4271 16.3354 58.6640
v  -47.2186 17.2946 48.3117
v  -5.0883 13.8719 70.1515
v  22.7426 8.5820 74.4144
v  41.8383 2.3259 62.5065
v  47.1708 -2.4002 48.0280
v  -26.6283 39.5994 57.3078
v  -45.2285 38.5071 46.1383
v  -0.6113 34.7764 64.4513
v  26.6485 24.3732 64.0744
v  45.1943 14.3601 56.2927
v  50.9113 6.2544 44.2310
v  45.9049 -24.8054 41.9572
v  46.8307 -28.6919 22.7150
v  47.6440 -32.5962 1.3397
v  49.2550 -37.3174 -20.3775
v  47.6521 -39.2865 -40.0403
v  49.2436 -14.2847 38.7536
v  59.5274 -18.7748 24.7546
v  64.6544 -23.3818 0.7374
v  59.4476 -26.2645 -22.3964
v  55.6323 -28.3411 -43.3059
v  52.1718 -4.1405 34.9565
v  66.6441 -6.9162 21.9420
v  73.8962 -9.9813 -2.0403
v  66.5235 -13.0160 -24.3953
v  57.6714 -14.5241 -41.5150
v  62.5644 5.7783 34.8182
v  74.2504 4.6929 17.7410
v  77.6483 3.2262 -5.2509
v  68.6581 0.0147 -25.5882
v  59.9823 -2.4491 -40.8010
v  32.9296 -43.5850 -51.5033
v  11.2323 -43.7399 -54.9179
v  -8.8000 -40.0317 -53.5828
v  -25.4647 -36.4697 -54.8123
v  -38.0154 -31.6247 -54.2791
v  41.0628 -30.2092 -59.4959
v  15.5639 -29.6878 -64.9383
v  -9.4216 -26.1282 -71.0165
v  -30.1283 -22.4168 -69.3221
v  -43.1740 -18.5207 -64.6614
v  46.2938 -12.6905 -58.8691
v  20.5578 -10.5476 -66.6279
v  -5.3105 -6.4535 -68.6406
v  -28.7472 -3.1029 -74.4144
v  -44.9342 -0.9434 -71.2793
v  47.9472 2.4724 -54.3306
v  23.9361 6.1834 -62.5259
v  -0.3660 9.5524 -65.3843
v  -21.7128 12.6624 -67.9352
v  -37.2490 14.2375 -65.4058
v  -45.2287 -33.0052 -42.0357
v  -51.5132 -34.2145 -22.2952
v  -55.6843 -35.0504 2.0476
v  -51.7181 -31.1759 26.8482
v  -49.5988 -16.4797 -49.1215
v  -63.6354 -15.2421 -29.7892
v  -73.0160 -15.2665 1.3903
v  -58.9618 -9.0679 30.5024
v  -56.3868 5.4232 -60.4381
v  -72.4376 14.2187 -38.8353
v  -77.6483 20.5005 -2.2827
v  -65.4229 22.1344 31.4516
v  -47.5249 23.9959 -55.5274
v  -60.5385 38.0753 -38.3141
v  -62.8407 44.7932 -5.9847
v  -58.2179 46.1349 26.0699
# 152 vertices

vn -0.5414 -0.7430 0.3934
vn -0.4708 -0.5089 0.7206
vn -0.7394 -0.4042 0.5384
vn -0.7689 -0.6010 0.2181
vn -0.0850 -0.8294 0.5521
vn -0.0999 -0.6227 0.7761
vn 0.2888 -0.8223 0.4904
vn 0.1729 -0.6304 0.7568
vn 0.4365 -0.7935 0.4240
vn 0.3502 -0.6403 0.6836
vn 0.5590 -0.7787 0.2848
vn 0.4727 -0.6960 0.5405
vn -0.4884 -0.8721 -0.0294
vn -0.6572 -0.7513 -0.0605
vn -0.1038 -0.9904 0.0908
vn 0.3030 -0.9177 0.2569
vn 0.5162 -0.8180 0.2536
vn 0.6266 -0.7570 0.1856
vn -0.4521 -0.8764 -0.1660
vn -0.5845 -0.8061 -0.0926
vn -0.1993 -0.9678 -0.1540
vn 0.1835 -0.9826 -0.0278
vn 0.4979 -0.8602 0.1099
vn 0.6363 -0.7499 0.1810
vn -0.2996 -0.9340 -0.1945
vn -0.5759 -0.7994 -0.1712
vn -0.1722 -0.9587 -0.2262
vn 0.0999 -0.9795 -0.1749
vn 0.3425 -0.9374 -0.0635
vn 0.5387 -0.8375 0.0920
vn -0.1900 -0.8227 -0.5358
vn -0.3881 -0.7425 -0.5459
vn -0.1786 -0.8338 -0.5223
vn 0.0583 -0.8770 -0.4770
vn 0.2472 -0.9374 -0.2452
vn 0.4256 -0.8999 -0.0945
vn -0.1054 0.9776 0.1824
vn -0.3685 0.9268 0.0717
vn -0.3863 0.7985 0.4617
vn -0.0084 0.8257 0.5641
vn 0.3260 0.9090 0.2598
vn 0.2725 0.8355 0.4771
vn 0.4492 0.8547 0.2601
vn 0.4004 0.8033 0.4410
vn 0.5337 0.8029 0.2655
vn 0.5600 0.6662 0.4924
vn 0.8506 0.2683 0.4522
vn 0.7187 0.0863 0.6899
vn -0.1244 0.9839 -0.1279
vn -0.3642 0.9266 -0.0934
vn 0.2545 0.9642 -0.0750
vn 0.4944 0.8691 0.0142
vn 0.5469 0.8372 -0.0060
vn 0.8914 0.4529 0.0195
vn -0.0101 0.9121 -0.4098
vn -0.3858 0.8505 -0.3576
vn 0.2711 0.8981 -0.3462
vn 0.4689 0.8431 -0.2633
vn 0.5962 0.7739 -0.2135
vn 0.7202 0.6606 -0.2120
vn 0.0260 0.7102 -0.7036
vn -0.2849 0.6625 -0.6927
vn 0.2069 0.7820 -0.5880
vn 0.4295 0.7633 -0.4826
vn 0.5984 0.7018 -0.3864
vn 0.7198 0.5911 -0.3639
vn 0.0479 0.5000 -0.8647
vn -0.1684 0.5120 -0.8423
vn 0.1450 0.4619 -0.8750
vn 0.3729 0.5222 -0.7669
vn 0.5908 0.5926 -0.5475
vn 0.6892 0.4539 -0.5648
vn -0.5316 -0.3118 0.7875
vn -0.7381 -0.2932 0.6076
vn -0.1756 -0.3227 0.9301
vn 0.2319 -0.4140 0.8802
vn 0.3869 -0.2422 0.8898
vn 0.6579 -0.1524 0.7375
vn -0.5182 -0.0734 0.8521
vn -0.6957 -0.1413 0.7043
vn -0.2296 -0.0967 0.9685
vn 0.2002 -0.3490 0.9155
vn 0.5663 -0.3651 0.7389
vn 0.7720 -0.0956 0.6284
vn -0.4495 0.0994 0.8878
vn -0.6020 -0.0003 0.7985
vn -0.2222 0.1532 0.9629
vn 0.2170 0.0894 0.9721
vn 0.6887 -0.2125 0.6932
vn 0.8028 -0.3524 0.4810
vn -0.2890 0.4505 0.8447
vn -0.5576 0.4149 0.7190
vn 0.0238 0.5836 0.8117
vn 0.3513 0.5935 0.7241
vn 0.7250 0.2707 0.6333
vn 0.7563 -0.1045 0.6459
vn 0.7552 -0.5155 0.4050
vn 0.6108 -0.7675 0.1945
vn 0.5957 -0.7887 0.1522
vn 0.6976 -0.7105 0.0925
vn 0.6590 -0.7179 -0.2243
vn 0.8107 -0.0555 0.5828
vn 0.7351 -0.5358 0.4155
vn 0.7014 -0.7075 0.0866
vn 0.8017 -0.5899 -0.0968
vn 0.8525 -0.3794 -0.3596
vn 0.7512 -0.3216 0.5764
vn 0.7986 -0.2928 0.5259
vn 0.9190 -0.3933 0.0271
vn 0.8819 -0.3460 -0.3203
vn 0.8745 -0.1292 -0.4675
vn 0.7243 -0.3195 0.6110
vn 0.9332 -0.1069 0.3430
vn 0.9826 0.1478 -0.1126
vn 0.8992 0.1058 -0.4246
vn 0.8050 0.0757 -0.5884
vn 0.2949 -0.7953 -0.5296
vn 0.0573 -0.7261 -0.6852
vn -0.1520 -0.7271 -0.6695
vn -0.2141 -0.7174 -0.6630
vn -0.5312 -0.6058 -0.5923
vn 0.4660 -0.3872 -0.7956
vn 0.1515 -0.3615 -0.9200
vn 0.0243 -0.4054 -0.9138
vn -0.2727 -0.5257 -0.8057
vn -0.6377 -0.5004 -0.5856
vn 0.5910 0.0243 -0.8063
vn 0.1821 0.0358 -0.9826
vn 0.1809 0.1093 -0.9774
vn -0.0220 0.0950 -0.9952
vn -0.4666 0.0406 -0.8836
vn 0.6303 0.3307 -0.7024
vn 0.2560 0.2266 -0.9397
vn 0.1140 0.1814 -0.9768
vn 0.0564 0.3288 -0.9427
vn -0.2352 0.4245 -0.8744
vn -0.7541 -0.5115 -0.4120
vn -0.7118 -0.6833 -0.1627
vn -0.7231 -0.6883 0.0573
vn -0.7955 -0.4670 0.3862
vn -0.7957 -0.4387 -0.4176
vn -0.8373 -0.4300 -0.3377
vn -0.9105 -0.4005 0.1029
vn -0.7916 -0.2832 0.5415
vn -0.7498 0.0103 -0.6616
vn -0.9196 0.0415 -0.3908
vn -0.9846 0.1709 0.0367
vn -0.8370 0.0903 0.5398
vn -0.4412 0.4697 -0.7647
vn -0.6404 0.6182 -0.4557
vn -0.6560 0.7503 -0.0827
vn -0.6579 0.6810 0.3216
# 152 vertex normals

vt 0.8574 0.0878 0.0000
vt 0.9088 0.1157 0.0000
vt 0.8653 0.1291 0.0000
vt 0.8203 0.1132 0.0000
vt 0.9126 0.0538 0.0000
vt 0.9688 0.1017 0.0000
vt 0.0963 0.1475 0.0000
vt 0.0685 0.1855 0.0000
vt 0.0232 0.1455 0.0000
vt 0.0546 0.0805 0.0000
vt 0.1283 0.1880 0.0000
vt 0.1045 0.2097 0.0000
vt 0.1547 0.2076 0.0000
vt 0.1310 0.2221 0.0000
vt 0.7908 0.0683 0.0000
vt 0.7692 0.1024 0.0000
vt 0.8237 0.0148 0.0000
vt 0.1529 0.1057 0.0000
vt 0.1382 0.0258 0.0000
vt 0.1726 0.1623 0.0000
vt 0.1889 0.1906 0.0000
vt 0.7222 0.0600 0.0000
vt 0.7180 0.0979 0.0000
vt 0.7263 0.0020 0.0000
vt 0.2382 0.0794 0.0000
vt 0.2441 0.0020 0.0000
vt 0.2306 0.1428 0.0000
vt 0.2277 0.1769 0.0000
vt 0.6616 0.0672 0.0000
vt 0.6694 0.1034 0.0000
vt 0.6466 0.0138 0.0000
vt 0.3100 0.0852 0.0000
vt 0.3323 0.0235 0.0000
vt 0.2846 0.1362 0.0000
vt 0.2687 0.1704 0.0000
vt 0.6164 0.0765 0.0000
vt 0.6345 0.1079 0.0000
vt 0.5900 0.0339 0.0000
vt 0.3558 0.1051 0.0000
vt 0.3859 0.0600 0.0000
vt 0.3249 0.1416 0.0000
vt 0.3040 0.1702 0.0000
vt 0.7915 0.3664 0.0000
vt 0.7718 0.3313 0.0000
vt 0.8135 0.3334 0.0000
vt 0.8398 0.3666 0.0000
vt 0.8198 0.4362 0.0000
vt 0.8797 0.4218 0.0000
vt 0.1788 0.3801 0.0000
vt 0.1679 0.4685 0.0000
vt 0.1110 0.4362 0.0000
vt 0.1396 0.3710 0.0000
vt 0.1903 0.3282 0.0000
vt 0.1605 0.3306 0.0000
vt 0.1999 0.3011 0.0000
vt 0.1749 0.3076 0.0000
vt 0.7270 0.3601 0.0000
vt 0.7240 0.3234 0.0000
vt 0.7382 0.4309 0.0000
vt 0.2366 0.3851 0.0000
vt 0.2577 0.4926 0.0000
vt 0.2280 0.3263 0.0000
vt 0.2260 0.2956 0.0000
vt 0.6641 0.3382 0.0000
vt 0.6771 0.3073 0.0000
vt 0.6443 0.4099 0.0000
vt 0.3037 0.3697 0.0000
vt 0.3591 0.4479 0.0000
vt 0.2702 0.3209 0.0000
vt 0.2554 0.2945 0.0000
vt 0.6114 0.3211 0.0000
vt 0.6387 0.2950 0.0000
vt 0.5737 0.3732 0.0000
vt 0.3584 0.3417 0.0000
vt 0.4247 0.3917 0.0000
vt 0.3105 0.3096 0.0000
vt 0.2849 0.2893 0.0000
vt 0.5714 0.3022 0.0000
vt 0.6058 0.2833 0.0000
vt 0.5231 0.3384 0.0000
vt 0.3873 0.3108 0.0000
vt 0.4510 0.3367 0.0000
vt 0.3403 0.2952 0.0000
vt 0.3103 0.2808 0.0000
vt 0.9200 0.1619 0.0000
vt 0.8670 0.1668 0.0000
vt 0.9963 0.1604 0.0000
vt 0.0675 0.2249 0.0000
vt 0.0038 0.2033 0.0000
vt 0.1104 0.2374 0.0000
vt 0.1371 0.2414 0.0000
vt 0.9158 0.2233 0.0000
vt 0.8626 0.2160 0.0000
vt 0.9980 0.2363 0.0000
vt 0.0713 0.2667 0.0000
vt 0.0020 0.2704 0.0000
vt 0.1196 0.2623 0.0000
vt 0.1460 0.2590 0.0000
vt 0.8976 0.2841 0.0000
vt 0.8483 0.2650 0.0000
vt 0.9724 0.3166 0.0000
vt 0.0876 0.3087 0.0000
vt 0.0198 0.3390 0.0000
vt 0.1288 0.2915 0.0000
vt 0.1539 0.2765 0.0000
vt 0.8662 0.3342 0.0000
vt 0.8294 0.3054 0.0000
vt 0.9280 0.3797 0.0000
vt 0.1107 0.3430 0.0000
vt 0.0562 0.3998 0.0000
vt 0.1445 0.3120 0.0000
vt 0.1651 0.2922 0.0000
vt 0.1587 0.2313 0.0000
vt 0.1923 0.2137 0.0000
vt 0.2320 0.2006 0.0000
vt 0.2740 0.1946 0.0000
vt 0.3102 0.1932 0.0000
vt 0.1676 0.2509 0.0000
vt 0.1981 0.2427 0.0000
vt 0.2382 0.2340 0.0000
vt 0.2766 0.2222 0.0000
vt 0.3123 0.2172 0.0000
vt 0.1768 0.2681 0.0000
vt 0.2077 0.2636 0.0000
vt 0.2448 0.2580 0.0000
vt 0.2794 0.2479 0.0000
vt 0.3108 0.2412 0.0000
vt 0.1889 0.2877 0.0000
vt 0.2189 0.2817 0.0000
vt 0.2505 0.2763 0.0000
vt 0.2823 0.2691 0.0000
vt 0.3104 0.2624 0.0000
vt 0.3402 0.1732 0.0000
vt 0.3775 0.1373 0.0000
vt 0.4270 0.0946 0.0000
vt 0.5948 0.1132 0.0000
vt 0.5545 0.0724 0.0000
vt 0.6201 0.1406 0.0000
vt 0.3477 0.2061 0.0000
vt 0.3986 0.1819 0.0000
vt 0.4740 0.1594 0.0000
vt 0.5778 0.1684 0.0000
vt 0.5156 0.1456 0.0000
vt 0.6100 0.1801 0.0000
vt 0.3473 0.2393 0.0000
vt 0.4038 0.2329 0.0000
vt 0.4808 0.2289 0.0000
vt 0.5717 0.2174 0.0000
vt 0.4942 0.2200 0.0000
vt 0.6072 0.2180 0.0000
vt 0.3433 0.2683 0.0000
vt 0.3980 0.2767 0.0000
vt 0.4697 0.2879 0.0000
vt 0.5657 0.2643 0.0000
vt 0.5007 0.2875 0.0000
vt 0.6031 0.2542 0.0000
vt 0.6552 0.1379 0.0000
vt 0.7037 0.1352 0.0000
vt 0.7606 0.1389 0.0000
vt 0.8183 0.1496 0.0000
vt 0.6461 0.1778 0.0000
vt 0.6935 0.1833 0.0000
vt 0.7529 0.1895 0.0000
vt 0.8154 0.2016 0.0000
vt 0.6372 0.2264 0.0000
vt 0.6832 0.2370 0.0000
vt 0.7413 0.2479 0.0000
vt 0.7996 0.2601 0.0000
vt 0.6365 0.2652 0.0000
vt 0.6793 0.2784 0.0000
vt 0.7319 0.2917 0.0000
vt 0.7849 0.3007 0.0000
# 172 texture coords

g Box003
usemtl 03___Default
s 1
f 1/1/1 2/2/2 3/3/3 4/4/4 
f 5/5/5 6/6/6 2/2/2 1/1/1 
f 7/7/7 8/8/8 6/9/6 5/10/5 
f 9/11/9 10/12/10 8/8/8 7/7/7 
f 11/13/11 12/14/12 10/12/10 9/11/9 
f 13/15/13 1/1/1 4/4/4 14/16/14 
f 15/17/15 5/5/5 1/1/1 13/15/13 
f 16/18/16 7/7/7 5/10/5 15/19/15 
f 17/20/17 9/11/9 7/7/7 16/18/16 
f 18/21/18 11/13/11 9/11/9 17/20/17 
f 19/22/19 13/15/13 14/16/14 20/23/20 
f 21/24/21 15/17/15 13/15/13 19/22/19 
f 22/25/22 16/18/16 15/19/15 21/26/21 
f 23/27/23 17/20/17 16/18/16 22/25/22 
f 24/28/24 18/21/18 17/20/17 23/27/23 
f 25/29/25 19/22/19 20/23/20 26/30/26 
f 27/31/27 21/24/21 19/22/19 25/29/25 
f 28/32/28 22/25/22 21/26/21 27/33/27 
f 29/34/29 23/27/23 22/25/22 28/32/28 
f 30/35/30 24/28/24 23/27/23 29/34/29 
f 31/36/31 25/29/25 26/30/26 32/37/32 
f 33/38/33 27/31/27 25/29/25 31/36/31 
f 34/39/34 28/32/28 27/33/27 33/40/33 
f 35/41/35 29/34/29 28/32/28 34/39/34 
f 36/42/36 30/35/30 29/34/29 35/41/35 
f 37/43/37 38/44/38 39/45/39 40/46/40 
f 41/47/41 37/43/37 40/46/40 42/48/42 
f 43/49/43 41/50/41 42/51/42 44/52/44 
f 45/53/45 43/49/43 44/52/44 46/54/46 
f 47/55/47 45/53/45 46/54/46 48/56/48 
f 49/57/49 50/58/50 38/44/38 37/43/37 
f 51/59/51 49/57/49 37/43/37 41/47/41 
f 52/60/52 51/61/51 41/50/41 43/49/43 
f 53/62/53 52/60/52 43/49/43 45/53/45 
f 54/63/54 53/62/53 45/53/45 47/55/47 
f 55/64/55 56/65/56 50/58/50 49/57/49 
f 57/66/57 55/64/55 49/57/49 51/59/51 
f 58/67/58 57/68/57 51/61/51 52/60/52 
f 59/69/59 58/67/58 52/60/52 53/62/53 
f 60/70/60 59/69/59 53/62/53 54/63/54 
f 61/71/61 62/72/62 56/65/56 55/64/55 
f 63/73/63 61/71/61 55/64/55 57/66/57 
f 64/74/64 63/75/63 57/68/57 58/67/58 
f 65/76/65 64/74/64 58/67/58 59/69/59 
f 66/77/66 65/76/65 59/69/59 60/70/60 
f 67/78/67 68/79/68 62/72/62 61/71/61 
f 69/80/69 67/78/67 61/71/61 63/73/63 
f 70/81/70 69/82/69 63/75/63 64/74/64 
f 71/83/71 70/81/70 64/74/64 65/76/65 
f 72/84/72 71/83/71 65/76/65 66/77/66 
f 73/85/73 74/86/74 3/3/3 2/2/2 
f 75/87/75 73/85/73 2/2/2 6/6/6 
f 76/88/76 75/89/75 6/9/6 8/8/8 
f 77/90/77 76/88/76 8/8/8 10/12/10 
f 78/91/78 77/90/77 10/12/10 12/14/12 
f 79/92/79 80/93/80 74/86/74 73/85/73 
f 81/94/81 79/92/79 73/85/73 75/87/75 
f 82/95/82 81/96/81 75/89/75 76/88/76 
f 83/97/83 82/95/82 76/88/76 77/90/77 
f 84/98/84 83/97/83 77/90/77 78/91/78 
f 85/99/85 86/100/86 80/93/80 79/92/79 
f 87/101/87 85/99/85 79/92/79 81/94/81 
f 88/102/88 87/103/87 81/96/81 82/95/82 
f 89/104/89 88/102/88 82/95/82 83/97/83 
f 90/105/90 89/104/89 83/97/83 84/98/84 
f 91/106/91 92/107/92 86/100/86 85/99/85 
f 93/108/93 91/106/91 85/99/85 87/101/87 
f 94/109/94 93/110/93 87/103/87 88/102/88 
f 95/111/95 94/109/94 88/102/88 89/104/89 
f 96/112/96 95/111/95 89/104/89 90/105/90 
f 40/46/40 39/45/39 92/107/92 91/106/91 
f 42/48/42 40/46/40 91/106/91 93/108/93 
f 44/52/44 42/51/42 93/110/93 94/109/94 
f 46/54/46 44/52/44 94/109/94 95/111/95 
f 48/56/48 46/54/46 95/111/95 96/112/96 
f 97/113/97 78/91/78 12/14/12 11/13/11 
f 98/114/98 97/113/97 11/13/11 18/21/18 
f 99/115/99 98/114/98 18/21/18 24/28/24 
f 100/116/100 99/115/99 24/28/24 30/35/30 
f 101/117/101 100/116/100 30/35/30 36/42/36 
f 102/118/102 84/98/84 78/91/78 97/113/97 
f 103/119/103 102/118/102 97/113/97 98/114/98 
f 104/120/104 103/119/103 98/114/98 99/115/99 
f 105/121/105 104/120/104 99/115/99 100/116/100 
f 106/122/106 105/121/105 100/116/100 101/117/101 
f 107/123/107 90/105/90 84/98/84 102/118/102 
f 108/124/108 107/123/107 102/118/102 103/119/103 
f 109/125/109 108/124/108 103/119/103 104/120/104 
f 110/126/110 109/125/109 104/120/104 105/121/105 
f 111/127/111 110/126/110 105/121/105 106/122/106 
f 112/128/112 96/112/96 90/105/90 107/123/107 
f 113/129/113 112/128/112 107/123/107 108/124/108 
f 114/130/114 113/129/113 108/124/108 109/125/109 
f 115/131/115 114/130/114 109/125/109 110/126/110 
f 116/132/116 115/131/115 110/126/110 111/127/111 
f 47/55/47 48/56/48 96/112/96 112/128/112 
f 54/63/54 47/55/47 112/128/112 113/129/113 
f 60/70/60 54/63/54 113/129/113 114/130/114 
f 66/77/66 60/70/60 114/130/114 115/131/115 
f 72/84/72 66/77/66 115/131/115 116/132/116 
f 117/133/117 101/117/101 36/42/36 35/41/35 
f 118/134/118 117/133/117 35/41/35 34/39/34 
f 119/135/119 118/134/118 34/39/34 33/40/33 
f 120/136/120 119/137/119 33/38/33 31/36/31 
f 121/138/121 120/136/120 31/36/31 32/37/32 
f 122/139/122 106/122/106 101/117/101 117/133/117 
f 123/140/123 122/139/122 117/133/117 118/134/118 
f 124/141/124 123/140/123 118/134/118 119/135/119 
f 125/142/125 124/143/124 119/137/119 120/136/120 
f 126/144/126 125/142/125 120/136/120 121/138/121 
f 127/145/127 111/127/111 106/122/106 122/139/122 
f 128/146/128 127/145/127 122/139/122 123/140/123 
f 129/147/129 128/146/128 123/140/123 124/141/124 
f 130/148/130 129/149/129 124/143/124 125/142/125 
f 131/150/131 130/148/130 125/142/125 126/144/126 
f 132/151/132 116/132/116 111/127/111 127/145/127 
f 133/152/133 132/151/132 127/145/127 128/146/128 
f 134/153/134 133/152/133 128/146/128 129/147/129 
f 135/154/135 134/155/134 129/149/129 130/148/130 
f 136/156/136 135/154/135 130/148/130 131/150/131 
f 71/83/71 72/84/72 116/132/116 132/151/132 
f 70/81/70 71/83/71 132/151/132 133/152/133 
f 69/82/69 70/81/70 133/152/133 134/153/134 
f 67/78/67 69/80/69 134/155/134 135/154/135 
f 68/79/68 67/78/67 135/154/135 136/156/136 
f 137/157/137 121/138/121 32/37/32 26/30/26 
f 138/158/138 137/157/137 26/30/26 20/23/20 
f 139/159/139 138/158/138 20/23/20 14/16/14 
f 140/160/140 139/159/139 14/16/14 4/4/4 
f 74/86/74 140/160/140 4/4/4 3/3/3 
f 141/161/141 126/144/126 121/138/121 137/157/137 
f 142/162/142 141/161/141 137/157/137 138/158/138 
f 143/163/143 142/162/142 138/158/138 139/159/139 
f 144/164/144 143/163/143 139/159/139 140/160/140 
f 80/93/80 144/164/144 140/160/140 74/86/74 
f 145/165/145 131/150/131 126/144/126 141/161/141 
f 146/166/146 145/165/145 141/161/141 142/162/142 
f 147/167/147 146/166/146 142/162/142 143/163/143 
f 148/168/148 147/167/147 143/163/143 144/164/144 
f 86/100/86 148/168/148 144/164/144 80/93/80 
f 149/169/149 136/156/136 131/150/131 145/165/145 
f 150/170/150 149/169/149 145/165/145 146/166/146 
f 151/171/151 150/170/150 146/166/146 147/167/147 
f 152/172/152 151/171/151 147/167/147 148/168/148 
f 92/107/92 152/172/152 148/168/148 86/100/86 
f 62/72/62 68/79/68 136/156/136 149/169/149 
f 56/65/56 62/72/62 149/169/149 150/170/150 
f 50/58/50 56/65/56 150/170/150 151/171/151 
f 38/44/38 50/58/50 151/171/151 152/172/152 
f 39/45/39 38/44/38 152/172/152 92/107/92 
# 150 polygons

